<svg width="209" height="153" viewBox="0 0 209 153" fill="none" xmlns="http://www.w3.org/2000/svg">
<g clip-path="url(#clip0)">
<path opacity="0.1" d="M205.691 102.861C200.843 113.089 191 119.928 180.8 124.438C167.068 130.512 151.945 132.921 137.03 131.902C134.417 131.724 131.811 131.44 129.213 131.049C120.19 129.703 111.393 127.083 103.074 123.264C100.673 122.158 98.321 120.951 96.0174 119.642C92.1697 117.461 88.4831 114.995 84.9869 112.264C84.1076 111.577 83.2404 110.873 82.3853 110.152C81.7924 109.651 81.2049 109.14 80.6083 108.644C79.3495 107.597 78.0541 106.602 76.6092 105.858C76.1732 105.633 75.7263 105.431 75.2701 105.253C70.6944 103.473 65.4182 104.145 60.6547 105.533C57.0314 106.589 53.4993 108.035 49.8796 109.067C48.2696 109.54 46.629 109.897 44.9701 110.135C41.2663 110.614 37.505 110.276 33.9397 109.144L33.635 109.047C33.1242 108.883 32.6176 108.703 32.1153 108.508L31.8106 108.388C31.3241 108.196 30.8479 107.991 30.3821 107.77L30.0774 107.629C29.5909 107.397 29.1147 107.153 28.6489 106.895C28.481 106.806 28.315 106.709 28.1508 106.617C25.5004 105.103 23.0912 103.185 21.0064 100.928C20.9462 100.866 20.8896 100.803 20.8239 100.741C20.5338 100.42 20.2492 100.093 19.9737 99.7594C19.8716 99.6363 19.7694 99.5131 19.6691 99.3862C19.3419 98.9782 19.0263 98.5608 18.7222 98.1341C18.6766 98.0725 18.6328 98.0091 18.589 97.9475C17.3432 96.1847 16.3104 94.2743 15.513 92.2579C15.4875 92.1963 15.4638 92.1328 15.4419 92.0713C15.1986 91.4306 14.9767 90.7793 14.776 90.1175C14.6939 89.8413 14.6154 89.5577 14.5461 89.2815C14.5224 89.1994 14.5005 89.1154 14.4804 89.0333C13.4733 84.9784 13.3584 80.7629 13.3584 76.5718C13.3584 76.0829 13.3584 75.5946 13.3584 75.1069C13.3876 68.3275 13.4898 61.4324 14.4676 54.7464C14.4676 54.6997 14.4804 54.653 14.4877 54.6083C14.815 52.3574 15.2602 50.1261 15.8214 47.924C16.4087 45.6135 17.1593 43.3496 18.0672 41.1502C20.3167 35.7387 23.5879 30.8141 27.2203 26.2498C36.3698 14.7642 48.369 5.12225 62.4134 1.51329C77.547 -2.37371 94.3663 1.35095 106.573 11.2914C110.295 14.3219 113.639 17.9104 117.819 20.2336C121.468 22.2564 125.739 23.0943 129.647 21.5025C132.876 20.1869 134.978 19.5338 138.605 19.7335C146.113 20.168 153.516 21.7538 160.564 24.4378C160.848 24.5442 161.133 24.6543 161.416 24.7644C179.789 31.9543 195.583 46.239 203.793 64.5954C204.011 65.0806 204.222 65.5695 204.426 66.0621C209.321 77.7567 211.091 91.4629 205.691 102.861Z" fill="#673AB7"/>
<path opacity="0.1" d="M21.9478 138.646C30.8429 138.646 38.0537 137.461 38.0537 136C38.0537 134.539 30.8429 133.354 21.9478 133.354C13.0527 133.354 5.8418 134.539 5.8418 136C5.8418 137.461 13.0527 138.646 21.9478 138.646Z" fill="#673AB7"/>
<path opacity="0.1" d="M166.434 153C182.206 153 194.992 151.73 194.992 150.163C194.992 148.597 182.206 147.327 166.434 147.327C150.663 147.327 137.877 148.597 137.877 150.163C137.877 151.73 150.663 153 166.434 153Z" fill="#673AB7"/>
<path d="M192.29 20.1068H23.4675C22.209 20.1068 21.1888 21.1503 21.1888 22.4375V118.232C21.1888 119.519 22.209 120.562 23.4675 120.562H192.29C193.549 120.562 194.569 119.519 194.569 118.232V22.4375C194.569 21.1503 193.549 20.1068 192.29 20.1068Z" fill="url(#paint0_linear)"/>
<path d="M192.035 21.5192H23.743C22.4845 21.5192 21.4643 22.5627 21.4643 23.8499V117.897C21.4643 119.185 22.4845 120.228 23.743 120.228H192.035C193.293 120.228 194.313 119.185 194.313 117.897V23.8499C194.313 22.5627 193.293 21.5192 192.035 21.5192Z" fill="white"/>
<path d="M192.035 21.5192H23.743C22.4845 21.5192 21.4643 22.5627 21.4643 23.8499V117.897C21.4643 119.185 22.4845 120.228 23.743 120.228H192.035C193.293 120.228 194.313 119.185 194.313 117.897V23.8499C194.313 22.5627 193.293 21.5192 192.035 21.5192Z" fill="white"/>
<path opacity="0.04" d="M192.035 21.5192H23.743C22.4845 21.5192 21.4643 22.5627 21.4643 23.8499V117.897C21.4643 119.185 22.4845 120.228 23.743 120.228H192.035C193.293 120.228 194.313 119.185 194.313 117.897V23.8499C194.313 22.5627 193.293 21.5192 192.035 21.5192Z" fill="white"/>
<path d="M193.436 20.3869H22.3418C22.1091 20.3869 21.8859 20.4815 21.7213 20.6498C21.5568 20.8181 21.4643 21.0464 21.4643 21.2845V25.0782H194.306V21.2845C194.306 21.0477 194.215 20.8205 194.052 20.6524C193.889 20.4843 193.667 20.3889 193.436 20.3869Z" fill="#5A5773"/>
<path d="M24.9161 23.9451C25.571 23.9451 26.102 23.4021 26.102 22.7322C26.102 22.0623 25.571 21.5192 24.9161 21.5192C24.2612 21.5192 23.7302 22.0623 23.7302 22.7322C23.7302 23.4021 24.2612 23.9451 24.9161 23.9451Z" fill="white"/>
<path d="M28.1088 23.9451C28.7638 23.9451 29.2947 23.4021 29.2947 22.7322C29.2947 22.0623 28.7638 21.5192 28.1088 21.5192C27.4539 21.5192 26.923 22.0623 26.923 22.7322C26.923 23.4021 27.4539 23.9451 28.1088 23.9451Z" fill="white"/>
<path d="M31.3015 23.9451C31.9565 23.9451 32.4874 23.4021 32.4874 22.7322C32.4874 22.0623 31.9565 21.5192 31.3015 21.5192C30.6466 21.5192 30.1157 22.0623 30.1157 22.7322C30.1157 23.4021 30.6466 23.9451 31.3015 23.9451Z" fill="white"/>
<path opacity="0.2" d="M82.0861 33.9008H35.7003V37.9277H82.0861V33.9008Z" fill="#673AB7"/>
<path opacity="0.1" d="M180.077 50.0476H35.7003V111.993H180.077V50.0476Z" fill="#5A5773"/>
<path opacity="0.1" d="M120.235 54.0876H117.763V49.1762C117.763 43.634 113.442 39.0267 108.024 38.9427C106.717 38.9286 105.421 39.1792 104.209 39.68C102.998 40.1807 101.895 40.9218 100.965 41.8604C100.035 42.799 99.2955 43.9166 98.7895 45.1488C98.2835 46.381 98.021 47.7034 98.017 49.0399V54.0876H95.5503C94.4603 54.0911 93.4158 54.5355 92.645 55.3239C91.8742 56.1123 91.4396 57.1806 91.4363 58.2956V78.4901C91.4396 79.605 91.8742 80.6733 92.645 81.4618C93.4158 82.2501 94.4603 82.6946 95.5503 82.698H120.235C121.325 82.6946 122.369 82.2501 123.139 81.4616C123.91 80.6732 124.344 79.6049 124.347 78.4901V58.2956C124.344 57.1808 123.91 56.1125 123.139 55.324C122.369 54.5356 121.325 54.0911 120.235 54.0876ZM109.334 67.2153V74.4482C109.336 74.8312 109.196 75.2008 108.942 75.4821C108.688 75.7635 108.339 75.9355 107.966 75.9634C107.771 75.9728 107.576 75.9416 107.393 75.8717C107.21 75.8018 107.043 75.6947 106.902 75.5569C106.761 75.4191 106.648 75.2535 106.571 75.0699C106.495 74.8864 106.455 74.6889 106.455 74.4892V67.2116C105.787 66.8787 105.25 66.3242 104.93 65.6387C104.611 64.9532 104.528 64.1771 104.695 63.4371C104.862 62.697 105.269 62.0367 105.85 61.5639C106.431 61.0911 107.152 60.8337 107.894 60.8337C108.637 60.8337 109.358 61.0911 109.939 61.5639C110.52 62.0367 110.927 62.697 111.094 63.4371C111.261 64.1771 111.178 64.9532 110.858 65.6387C110.539 66.3242 110.001 66.8787 109.334 67.2116V67.2153ZM114.887 54.0876H100.896V49.0399C100.896 47.1429 101.633 45.3236 102.944 43.9823C104.256 42.6409 106.034 41.8873 107.889 41.8873C109.744 41.8873 111.522 42.6409 112.834 43.9823C114.145 45.3236 114.882 47.1429 114.882 49.0399L114.887 54.0876Z" fill="black"/>
<path d="M120.235 53.7146H117.763V48.8031C117.763 43.2609 113.442 38.6536 108.024 38.5697C106.717 38.5556 105.421 38.8062 104.209 39.3069C102.998 39.8077 101.895 40.5487 100.965 41.4873C100.035 42.4259 99.2955 43.5435 98.7895 44.7757C98.2835 46.008 98.021 47.3304 98.017 48.6669V53.7146H95.5503C94.4603 53.718 93.4158 54.1625 92.645 54.9509C91.8742 55.7393 91.4396 56.8076 91.4363 57.9225V78.117C91.4396 79.232 91.8742 80.3003 92.645 81.0887C93.4158 81.8771 94.4603 82.3215 95.5503 82.325H120.235C121.325 82.3215 122.369 81.877 123.139 81.0886C123.91 80.3001 124.344 79.2318 124.347 78.117V57.9225C124.344 56.8077 123.91 55.7394 123.139 54.951C122.369 54.1625 121.325 53.718 120.235 53.7146ZM109.334 66.8423V74.0751C109.336 74.4581 109.196 74.8277 108.942 75.1091C108.688 75.3904 108.339 75.5624 107.966 75.5904C107.771 75.5997 107.576 75.5685 107.393 75.4986C107.21 75.4288 107.043 75.3217 106.902 75.1839C106.761 75.0461 106.648 74.8804 106.571 74.6969C106.495 74.5134 106.455 74.3158 106.455 74.1162V66.8386C105.787 66.5056 105.25 65.9512 104.93 65.2657C104.611 64.5802 104.528 63.8041 104.695 63.064C104.862 62.324 105.269 61.6637 105.85 61.1909C106.431 60.718 107.152 60.4606 107.894 60.4606C108.637 60.4606 109.358 60.718 109.939 61.1909C110.52 61.6637 110.927 62.324 111.094 63.064C111.261 63.8041 111.178 64.5802 110.858 65.2657C110.539 65.9512 110.001 66.5056 109.334 66.8386V66.8423ZM114.887 53.7146H100.896V48.6669C100.896 46.7699 101.633 44.9506 102.944 43.6092C104.256 42.2679 106.034 41.5143 107.889 41.5143C109.744 41.5143 111.522 42.2679 112.834 43.6092C114.145 44.9506 114.882 46.7699 114.882 48.6669L114.887 53.7146Z" fill="#673AB7"/>
<path opacity="0.1" d="M180.077 44.0857H165.464V47.6144H180.077V44.0857Z" fill="#5A5773"/>
<path d="M185.051 151.018C184.955 150.524 184.79 150.045 184.562 149.598L182.373 146.254H182.385C182.385 146.254 182.041 144.575 182.385 143.75C182.73 142.925 181.156 140.897 181.156 140.897C181.156 140.897 180.964 140.387 181.464 139.76C181.964 139.133 181.156 137.297 181.156 137.297C181.156 137.297 180.773 133.462 180.734 132.876C180.696 132.29 180.388 129.044 180.388 129.044L179.658 122.16L178.359 103.915L178.335 103.574C178.496 103.493 178.581 103.443 178.581 103.443L178.322 93.3552L178.547 93.148C180.506 91.3342 185.025 87.1356 184.98 87.0441C184.934 86.9527 184.432 80.0334 184.374 78.3017C184.324 77.071 184.061 75.8592 183.597 74.7226C183.484 74.493 183.157 72.9797 183.022 72.3396C182.986 72.1642 182.962 72.0541 182.962 72.0541C182.962 72.0541 181.637 69.4715 181.752 68.2977C181.867 67.124 182.097 66.2451 179.273 65.8345C179.273 65.8345 176.901 65.4725 175.489 64.4854C174.654 63.8941 173.741 63.4266 172.778 63.097C172.778 63.097 171.986 61.6042 171.435 62.1099C171.202 61.5772 171.027 61.0195 170.915 60.4472L170.899 60.3427C171.945 59.5968 172.697 58.4949 173.022 57.2339C173.041 57.1629 173.055 57.0902 173.072 57.0193C173.126 57.0382 173.184 57.0489 173.241 57.051C173.721 57.051 174.017 56.5042 174.466 56.3307C174.648 56.2579 174.872 56.2467 175.013 56.0993C175.059 56.0425 175.094 55.9766 175.114 55.9057C175.135 55.8348 175.142 55.7604 175.133 55.6869C175.138 55.636 175.138 55.5848 175.133 55.5339C175.134 55.5158 175.134 55.4978 175.133 55.4798V55.4984C175.011 54.8192 174.497 54.2164 174.553 53.526C174.608 52.8766 175.166 52.3056 175.121 51.673C175.12 51.623 175.116 51.5731 175.108 51.5237V51.5461C175.04 51.2991 174.915 51.0725 174.743 50.8855C174.546 50.6118 174.289 50.3904 173.991 50.2399C173.738 50.126 173.444 50.0999 173.207 49.9637C172.51 49.5755 172.512 48.5641 172.097 47.8737C171.92 47.5855 171.668 47.353 171.37 47.2018C171.071 47.0507 170.738 46.9868 170.406 47.0172C169.888 47.0694 169.419 47.3512 168.907 47.4426C168.206 47.5695 167.493 47.3363 166.829 47.0694C166.164 46.8026 165.491 46.5096 164.778 46.5096C164.065 46.5096 163.293 46.8828 163.078 47.5714C162.963 47.9446 163.019 48.3458 162.932 48.7246C162.775 49.3927 162.202 49.8704 161.609 50.2025C161.244 50.4097 160.81 50.6467 160.697 51.0385C160.697 51.0273 160.697 51.018 160.697 51.0087C160.688 51.0399 160.682 51.0717 160.678 51.1038C160.675 51.1454 160.675 51.1873 160.678 51.2289C160.678 51.4976 160.817 51.7532 160.91 52.0089C161.083 52.4953 161.08 53.0293 160.899 53.5129C160.764 53.8675 160.534 54.1791 160.403 54.5318C160.341 54.6961 160.301 54.868 160.283 55.0431V55.0132C160.278 55.0928 160.278 55.1725 160.283 55.2521C160.28 55.5246 160.343 55.7936 160.465 56.0358C160.549 56.2031 160.664 56.3515 160.805 56.4724C160.946 56.5932 161.109 56.684 161.284 56.7393C161.649 56.8252 161.877 56.4594 162.262 56.5527C162.331 56.5697 162.399 56.5915 162.465 56.6181C162.477 56.702 162.49 56.786 162.505 56.8681C162.737 58.124 163.392 59.2573 164.355 60.0721C164.355 60.1169 164.369 60.1617 164.375 60.2084C164.491 60.9523 164.542 61.7055 164.526 62.4588C164.526 62.4588 163.951 61.5986 163.163 63.2594C163.163 63.2594 161.107 64.4723 160.397 64.6104C159.688 64.7485 157.168 65.646 157.168 65.646C156.788 65.9271 156.331 66.078 155.862 66.0771C155.076 66.0771 154.422 67.8368 154.517 68.7941C154.612 69.7514 154.461 70.4567 153.729 70.4959C152.998 70.5351 153.397 72.0522 153.403 72.0783L153.335 72.4049C153.193 73.073 152.883 74.5061 152.773 74.73C152.309 75.8668 152.046 77.0784 151.994 78.3091C151.938 80.0408 151.447 86.934 151.39 87.0516C151.352 87.1281 154.448 90.0224 156.625 92.0452L156.94 92.3363L155.939 101.905C155.968 102.274 156.075 102.632 156.253 102.954C156.43 103.276 156.674 103.555 156.968 103.771C156.968 103.883 156.968 103.997 156.957 104.115C156.913 105.234 156.825 106.589 156.65 106.944C156.344 107.571 156.42 110.933 156.42 110.933C156.42 110.933 156.112 117.778 155.729 118.523C155.346 119.267 155.267 120.829 155.382 121.135C155.497 121.441 154.997 129.661 154.997 129.661L154.614 133.339C154.614 133.339 154.729 136.859 154.382 136.937C154.036 137.015 153.844 139.441 153.844 139.441C153.844 139.441 152.616 141.162 153.153 141.787C153.689 142.412 153.074 142.688 153.018 142.843C152.961 142.998 151.846 143.589 152.653 145.776C152.66 145.798 152.669 145.819 152.678 145.84C151.923 146.913 149.529 150.374 149.675 150.901C149.783 151.235 150.011 151.516 150.314 151.684C150.878 152.03 151.845 152.19 153.383 151.684C155.937 150.843 155.754 150.236 155.754 150.236C155.767 149.953 155.886 149.685 156.087 149.489C156.287 149.292 156.553 149.182 156.831 149.18C157.887 149.102 158.675 148.105 158.675 148.105L158.551 147.633L158.381 146.98C158.402 146.793 158.531 146.467 159.111 146.286C159.996 146.012 159.764 144.291 159.764 144.291C159.764 144.291 159.688 142.492 160.071 142.257C160.454 142.022 160.303 139.049 160.303 139.049C160.303 139.049 160.726 136.898 161.339 135.45C161.952 134.002 162.685 125.399 162.685 125.399C162.685 125.399 163.183 121.174 163.645 119.961C164.106 118.748 164.53 115.347 164.53 115.347C164.53 115.347 167.374 109.713 167.411 108.461C167.411 108.461 167.775 107.287 168.14 108.578C168.505 109.87 169.53 112.96 169.53 112.96L170.528 116.754L171.72 122.425L172.49 127.198C172.49 127.198 172.373 128.997 172.672 129.624C172.971 130.251 173.402 131.695 173.172 131.97C172.942 132.244 173.632 133.535 173.825 133.808C174.019 134.08 173.825 139.87 173.825 139.87C173.825 139.87 174.708 144.799 175.976 145.655C176.065 145.715 176.159 145.765 176.257 145.804C176.239 146.338 176.221 147.053 176.244 147.426C176.242 147.509 176.255 147.593 176.284 147.671C176.399 147.827 177.706 148.883 177.976 148.883C178.246 148.883 179.204 149.568 179.244 149.9C179.284 150.233 182.051 151.64 182.444 151.681C182.836 151.722 184.737 152.071 184.998 151.524C185.062 151.364 185.081 151.189 185.051 151.018ZM178.251 80.5335L178.448 80.707C178.448 80.707 178.651 82.3211 178.795 82.8045C178.939 83.2878 178.766 84.2283 178.766 84.2283C178.779 84.5793 178.847 84.9258 178.968 85.2546C179.14 85.6073 178.622 86.3742 178.622 86.3742H178.16L178.016 80.3319L178.251 80.5335ZM164.526 62.4924V62.4569C164.522 62.4681 164.521 62.4812 164.521 62.4924H164.526ZM157.438 85.7528C157.367 85.5965 157.357 85.4185 157.409 85.2546C157.45 85.166 157.482 85.0735 157.506 84.9784C157.562 84.7333 157.598 84.4835 157.612 84.232C157.612 84.2289 157.612 84.2258 157.612 84.2227C157.595 84.1331 157.447 83.2672 157.584 82.8082C157.721 82.3491 157.929 80.7107 157.929 80.7107L158.06 80.5969L158.365 80.3263C158.365 80.3263 158.365 80.2256 158.387 80.0595C158.451 81.4777 158.502 83.0452 158.42 83.1236C158.267 83.2784 157.708 84.803 157.843 84.8627C157.887 84.8832 157.827 85.4934 157.725 86.3145C157.61 86.1382 157.514 85.9499 157.438 85.7528Z" fill="url(#paint1_linear)"/>
<path d="M172.143 63.9831V66.3045L167.487 68.6987C167.487 68.6987 162.864 65.838 164.004 64.6997C164.734 63.9794 164.594 62.0014 164.397 60.641C164.282 59.8498 164.149 59.2695 164.149 59.2695C164.149 59.2695 172.453 56.8436 171.198 58.6854C170.778 59.3012 170.746 60.098 170.886 60.8873C171.171 62.453 172.143 63.9831 172.143 63.9831Z" fill="#C37098"/>
<path d="M159.389 86.6838L158.788 94.245C158.788 94.245 157.889 93.4109 156.725 92.3249C154.567 90.3114 151.502 87.4321 151.538 87.3556C151.595 87.238 152.085 80.3784 152.138 78.6541C152.188 77.4303 152.449 76.225 152.908 75.0937C153.018 74.8698 153.326 73.4441 153.456 72.7779C153.499 72.5708 153.527 72.4365 153.527 72.4365L154.534 72.0222C154.534 72.0222 158.73 76.8105 158.73 76.8982C158.73 76.9859 158.444 80.6639 158.444 80.6639L158.146 80.9289L158.017 81.0427C158.017 81.0427 157.816 82.6494 157.674 83.1308C157.531 83.6123 157.685 84.4482 157.701 84.5378C157.688 84.7892 157.653 85.039 157.597 85.2842C157.573 85.3786 157.541 85.4704 157.5 85.5586C157.449 85.7219 157.459 85.899 157.53 86.0549C157.611 86.2713 157.716 86.4773 157.843 86.6688L159.389 86.6838Z" fill="#3F3D56"/>
<path d="M184.819 87.356C184.863 87.4474 180.388 91.6255 178.448 93.43L177.569 94.2455L176.974 86.6842H178.516C178.516 86.6842 179.03 85.9247 178.859 85.5739C178.739 85.2468 178.672 84.9021 178.66 84.5531C178.66 84.5531 178.83 83.6201 178.687 83.1368C178.545 82.6535 178.344 81.0487 178.344 81.0487L178.149 80.877L177.917 80.6699C177.917 80.6699 177.631 76.9919 177.631 76.9042C177.631 76.8165 181.827 72.0281 181.827 72.0281L182.827 72.4368C182.827 72.4368 182.849 72.5469 182.885 72.7223C183.02 73.3586 183.343 74.8645 183.454 75.0941C183.914 76.2253 184.175 77.4306 184.224 78.6545C184.272 80.3788 184.761 87.2384 184.819 87.356Z" fill="#3F3D56"/>
<path d="M184.837 151.537C184.569 152.082 182.686 151.724 182.298 151.694C181.909 151.664 179.165 150.251 179.127 149.921C179.089 149.591 178.138 148.91 177.872 148.91C177.605 148.91 176.312 147.857 176.197 147.702C176.168 147.625 176.155 147.542 176.159 147.46C176.119 146.82 176.197 145.172 176.197 145.172L181.716 145.484L184.398 149.609C184.624 150.055 184.787 150.53 184.883 151.022C184.916 151.195 184.9 151.373 184.837 151.537Z" fill="#3F3D56"/>
<path opacity="0.1" d="M184.837 151.537C184.569 152.082 182.686 151.724 182.298 151.694C181.909 151.664 179.165 150.251 179.127 149.921C179.089 149.591 178.138 148.91 177.872 148.91C177.605 148.91 176.312 147.857 176.197 147.702C176.168 147.625 176.155 147.542 176.159 147.46C176.119 146.82 176.197 145.172 176.197 145.172L181.716 145.484L184.398 149.609C184.624 150.055 184.787 150.53 184.883 151.022C184.916 151.195 184.9 151.373 184.837 151.537Z" fill="black"/>
<path opacity="0.1" d="M184.837 151.537C184.569 152.082 182.686 151.724 182.298 151.694C181.909 151.664 179.165 150.251 179.127 149.921C179.089 149.591 178.138 148.91 177.872 148.91C177.605 148.91 176.312 147.857 176.197 147.702C176.168 147.625 176.155 147.542 176.159 147.46L177.947 148.617C177.947 148.617 179.089 149.363 179.393 149.805C179.698 150.247 182.099 151.167 182.298 151.186C182.446 151.201 184.022 150.891 184.883 151.022C184.916 151.195 184.9 151.373 184.837 151.537Z" fill="black"/>
<path d="M158.748 148.131C158.748 148.131 157.967 149.124 156.924 149.201C156.648 149.203 156.384 149.313 156.186 149.509C155.988 149.704 155.87 149.97 155.858 150.251C155.858 150.251 156.041 150.856 153.518 151.694C151.994 152.196 151.036 152.037 150.478 151.694C150.178 151.525 149.952 151.246 149.845 150.914C149.674 150.292 153.041 145.562 153.041 145.562L156.106 145.375L158.296 146.387L158.631 147.669L158.748 148.131Z" fill="#3F3D56"/>
<path opacity="0.1" d="M158.748 148.131C158.748 148.131 157.967 149.124 156.924 149.201C156.648 149.203 156.384 149.313 156.186 149.509C155.988 149.704 155.87 149.97 155.858 150.251C155.858 150.251 156.041 150.856 153.518 151.694C151.994 152.196 151.036 152.037 150.478 151.694C150.178 151.525 149.952 151.246 149.845 150.914C149.674 150.292 153.041 145.562 153.041 145.562L156.106 145.375L158.296 146.387L158.631 147.669L158.748 148.131Z" fill="black"/>
<path opacity="0.1" d="M158.748 148.132C158.748 148.132 157.967 149.124 156.924 149.201C156.648 149.203 156.384 149.313 156.186 149.509C155.988 149.704 155.87 149.97 155.858 150.252C155.858 150.252 156.041 150.856 153.518 151.694C151.994 152.196 151.036 152.037 150.478 151.694C151.914 151.541 155.087 150.614 155.404 150.293C155.785 149.903 156.262 148.831 156.584 148.813C156.809 148.798 157.949 148.096 158.633 147.661L158.748 148.132Z" fill="black"/>
<path d="M182.249 143.791C181.906 144.608 182.249 146.282 182.249 146.282C182.249 146.282 177.14 146.555 175.892 145.698C174.644 144.842 173.761 139.936 173.761 139.936C173.761 139.936 173.944 134.175 173.761 133.903C173.579 133.63 172.886 132.346 173.114 132.074C173.342 131.802 172.931 130.361 172.619 129.738C172.307 129.114 172.437 127.325 172.437 127.325L171.674 122.574L170.496 116.931L169.494 113.154C169.494 113.154 168.467 110.079 168.118 108.795C167.77 107.511 167.401 108.677 167.401 108.677C167.365 109.924 164.548 115.53 164.548 115.53C164.548 115.53 164.128 118.916 163.672 120.122C163.216 121.327 162.72 125.533 162.72 125.533C162.72 125.533 161.99 134.097 161.388 135.537C160.786 136.978 160.372 139.118 160.372 139.118C160.372 139.118 160.525 142.078 160.144 142.311C159.763 142.544 159.825 144.336 159.825 144.336C159.825 144.336 160.053 146.047 159.177 146.321C158.301 146.596 158.447 147.178 158.447 147.178C158.447 147.178 153.576 147.995 152.777 145.814C151.978 143.632 153.082 143.052 153.142 142.895C153.202 142.739 153.81 142.468 153.277 141.843C152.744 141.218 153.961 139.508 153.961 139.508C153.961 139.508 154.153 137.096 154.494 137.017C154.835 136.939 154.724 133.436 154.724 133.436L155.103 129.777C155.103 129.777 155.599 121.602 155.484 121.29C155.369 120.978 155.446 119.424 155.827 118.678C156.209 117.931 156.511 111.124 156.511 111.124C156.511 111.124 156.435 107.778 156.74 107.155C156.922 106.802 156.999 105.445 157.042 104.339C157.075 103.493 157.083 102.794 157.083 102.794L161.344 101.159L166.818 99.3694L171.422 101.627L178.16 102.95L178.244 104.139L179.53 122.298L180.26 129.148C180.26 129.148 180.565 132.378 180.603 132.962C180.641 133.546 181.021 137.362 181.021 137.362C181.021 137.362 181.82 139.191 181.325 139.814C180.831 140.438 181.021 140.934 181.021 140.934C181.021 140.934 182.592 142.974 182.249 143.791Z" fill="#3F3D56"/>
<path opacity="0.1" d="M171.202 58.6854C170.782 59.3012 170.749 60.098 170.89 60.8874C169.931 61.5792 168.776 61.9296 167.604 61.8848C166.431 61.84 165.306 61.4023 164.4 60.6392C164.285 59.848 164.152 59.2676 164.152 59.2676C164.152 59.2676 172.457 56.8455 171.202 58.6854Z" fill="black"/>
<path d="M173.143 56.3046C173.143 57.386 172.829 58.4431 172.242 59.3423C171.655 60.2414 170.82 60.9422 169.843 61.356C168.866 61.7698 167.791 61.8781 166.754 61.6671C165.718 61.4562 164.765 60.9354 164.017 60.1708C163.27 59.4061 162.761 58.4319 162.554 57.3713C162.348 56.3107 162.454 55.2114 162.859 54.2123C163.263 53.2132 163.948 52.3593 164.828 51.7585C165.707 51.1578 166.74 50.8371 167.797 50.8371C168.5 50.8336 169.197 50.9727 169.847 51.2462C170.497 51.5198 171.088 51.9224 171.585 52.4308C172.082 52.9392 172.475 53.5433 172.743 54.2082C173.01 54.8731 173.146 55.5857 173.143 56.3046Z" fill="#C37098"/>
<path opacity="0.1" d="M174.256 65.3904L172.504 97.2907L162.99 95.2473L161.105 82.4592L162.972 65.2915L164.377 65.4762L166.854 65.799L169.308 65.9539L171.968 65.6516L174.256 65.3904Z" fill="black"/>
<path d="M174.256 65.6237L172.504 97.524L162.99 95.4806L161.105 82.6925L162.972 65.5266L164.377 65.7095L166.854 66.0323L169.308 66.1872L171.968 65.8849L174.256 65.6237Z" fill="#673AB7"/>
<path d="M166.435 66.4801L169.861 66.5977L168.897 67.9767C168.897 67.9767 168.965 70.7627 169.423 71.5614C169.881 72.36 169.746 84.6984 169.746 84.6984L168.834 86.4693L167.274 84.4838L167.294 68.1931L166.435 66.4801Z" fill="#3F3D56"/>
<path opacity="0.1" d="M166.435 66.4801L169.861 66.5977L168.897 67.9767C168.897 67.9767 168.965 70.7627 169.423 71.5614C169.881 72.36 169.746 84.6984 169.746 84.6984L168.834 86.4693L167.274 84.4838L167.294 68.1931L166.435 66.4801Z" fill="black"/>
<path opacity="0.1" d="M171.8 62.86L168.604 66.4801L170.43 68.4264L173.457 65.409L171.8 62.86Z" fill="black"/>
<path d="M171.8 62.6268L168.604 66.2469L170.43 68.1932L173.457 65.1758L171.8 62.6268Z" fill="#673AB7"/>
<path opacity="0.1" d="M167.254 66.3047L164.017 62.9962L163.712 64.7279L165.197 68.5235L167.254 66.3047Z" fill="black"/>
<path d="M167.367 66.0715L164.132 62.763L163.827 64.4947L165.312 68.2902L167.367 66.0715Z" fill="#673AB7"/>
<path opacity="0.1" d="M178.26 104.145C176.707 104.902 175.043 105.394 173.334 105.602C170.195 106.011 168.14 101.924 168.14 101.924L166.942 103.519C166.56 105.214 160.757 105.641 158.398 104.999C157.908 104.876 157.448 104.653 157.044 104.344C157.077 103.499 157.084 102.799 157.084 102.799L161.346 101.165L166.819 99.375L171.424 101.633L178.162 102.956L178.26 104.145Z" fill="black"/>
<path opacity="0.1" d="M174.256 65.6255L172.506 97.5239L162.99 95.4806L161.102 82.6944L162.966 65.5266L164.371 65.7132C164.335 66.3386 164.266 66.9615 164.165 67.5793C163.937 68.6709 165.345 76.4169 165.345 76.4169C165.345 76.4169 168.022 85.1035 169.226 83.8513C170.43 82.5992 172.145 75.9878 172.145 75.9878C173.307 73.5358 172.165 66.6575 172.079 66.5194C172.019 66.316 171.983 66.1062 171.97 65.8942L174.256 65.6255Z" fill="black"/>
<path opacity="0.1" d="M178.366 90.3097L178.446 93.4353L177.567 94.2508L176.974 86.6839H178.288L178.366 90.3097Z" fill="black"/>
<path opacity="0.1" d="M157.703 84.5436C157.689 84.795 157.655 85.0447 157.599 85.29C157.599 85.2209 157.599 85.1817 157.584 85.1761C157.529 85.1612 157.595 84.8757 157.703 84.5436Z" fill="black"/>
<path opacity="0.1" d="M159.389 86.684L158.788 94.2453C158.788 94.2453 157.889 93.4112 156.725 92.3251L156.864 90.9853C156.864 90.9853 157.354 87.6936 157.533 86.0701C157.614 86.2864 157.72 86.4925 157.847 86.684H159.389Z" fill="black"/>
<path d="M164.55 62.8788C164.55 62.8788 163.981 62.0222 163.2 63.6756C163.2 63.6756 161.164 64.8829 160.463 65.0191C159.763 65.1554 157.27 66.0511 157.27 66.0511C156.894 66.3294 156.441 66.4789 155.977 66.4784C155.196 66.4784 154.548 68.2306 154.643 69.1842C154.738 70.1377 154.587 70.8394 153.864 70.8786C153.142 70.9178 153.54 72.4535 153.54 72.4535L158.354 78.0984C158.354 78.0984 158.659 83.2953 158.507 83.4521C158.356 83.6088 157.803 85.1315 157.936 85.1838C158.07 85.236 157.207 90.9835 157.207 90.9835L156.046 102.137C156.046 102.137 156.046 104.003 158.407 104.647C160.768 105.291 166.575 104.865 166.949 103.171L168.148 101.573C168.148 101.573 170.202 105.662 173.342 105.253C176.482 104.845 178.481 103.676 178.481 103.676L178.138 90.3099L177.91 80.6754L182.812 72.4367C182.812 72.4367 181.499 69.8672 181.614 68.7046C181.729 67.5421 181.955 66.6613 179.158 66.2526C179.158 66.2526 176.799 65.8925 175.409 64.909C174.583 64.3223 173.68 63.8574 172.727 63.5282C172.727 63.5282 171.942 62.0353 171.397 62.5466C171.397 62.5466 171.944 64.6571 171.899 64.9725C171.853 65.2879 171.984 66.7135 172.07 66.8609C172.156 67.0084 173.298 73.8773 172.136 76.3293C172.136 76.3293 170.43 82.9408 169.217 84.1929C168.004 85.445 165.336 76.7585 165.336 76.7585C165.336 76.7585 163.928 69.0106 164.156 67.9209C164.384 66.8311 164.55 62.8788 164.55 62.8788Z" fill="#3F3D56"/>
<path d="M168.622 88.397C169.084 88.397 169.459 88.0135 169.459 87.5405C169.459 87.0674 169.084 86.6839 168.622 86.6839C168.159 86.6839 167.785 87.0674 167.785 87.5405C167.785 88.0135 168.159 88.397 168.622 88.397Z" fill="#3F3D56"/>
<path d="M168.622 92.4351C169.084 92.4351 169.459 92.0517 169.459 91.5786C169.459 91.1056 169.084 90.7221 168.622 90.7221C168.159 90.7221 167.785 91.1056 167.785 91.5786C167.785 92.0517 168.159 92.4351 168.622 92.4351Z" fill="#3F3D56"/>
<path opacity="0.1" d="M168.622 88.397C169.084 88.397 169.459 88.0135 169.459 87.5405C169.459 87.0674 169.084 86.6839 168.622 86.6839C168.159 86.6839 167.785 87.0674 167.785 87.5405C167.785 88.0135 168.159 88.397 168.622 88.397Z" fill="black"/>
<path opacity="0.1" d="M168.622 92.4351C169.084 92.4351 169.459 92.0517 169.459 91.5786C169.459 91.1056 169.084 90.7221 168.622 90.7221C168.159 90.7221 167.785 91.1056 167.785 91.5786C167.785 92.0517 168.159 92.4351 168.622 92.4351Z" fill="black"/>
<path opacity="0.1" d="M176.148 142.623C176.148 142.623 179.585 142.895 179.926 143.168C180.267 143.44 176.148 142.623 176.148 142.623Z" fill="black" stroke="#673AB7" stroke-miterlimit="10"/>
<path opacity="0.1" d="M155.683 139.859C155.683 139.859 156.413 140.792 156.103 141.221C155.793 141.651 155.683 139.859 155.683 139.859Z" fill="black" stroke="#673AB7" stroke-miterlimit="10"/>
<path opacity="0.1" d="M156.559 143.224C156.559 143.224 157.891 142.328 158.423 142.923C158.956 143.519 156.559 143.224 156.559 143.224Z" fill="black" stroke="#673AB7" stroke-miterlimit="10"/>
<path opacity="0.1" d="M173.143 56.3044C173.144 56.7709 173.086 57.2356 172.971 57.6871C172.859 57.6346 172.765 57.5482 172.701 57.4395C172.638 57.3308 172.609 57.205 172.617 57.0788C172.641 56.8567 172.785 56.6533 172.754 56.4331C172.709 56.0935 172.307 55.9554 172.096 55.6867C171.835 55.362 171.891 54.8899 171.913 54.47C171.935 54.0502 171.831 53.537 171.446 53.3933C171.331 53.3504 171.205 53.3467 171.094 53.2981C170.791 53.1675 170.698 52.7831 170.496 52.5181C170.091 51.9844 169.286 51.9956 168.671 52.2494C168.404 52.3806 168.13 52.4977 167.85 52.6002C167.71 52.6507 167.562 52.6709 167.414 52.6597C167.266 52.6485 167.122 52.606 166.991 52.5349C166.871 52.4565 166.774 52.3483 166.65 52.2699C166.237 52.0161 165.697 52.2699 165.34 52.5965C164.982 52.9231 164.696 53.3616 164.245 53.5612C164.043 53.6546 163.793 53.7105 163.698 53.9121C163.651 54.0218 163.631 54.1416 163.639 54.261C163.639 54.9869 163.723 55.724 163.576 56.435C163.481 56.8922 163.167 57.4109 162.713 57.3549C162.656 57.3464 162.6 57.332 162.547 57.312C162.41 56.5647 162.427 55.7963 162.597 55.0561C162.767 54.3159 163.086 53.6201 163.534 53.0131C163.982 52.4062 164.548 51.9014 165.197 51.5311C165.847 51.1607 166.564 50.933 167.304 50.8624C168.045 50.7917 168.791 50.8798 169.496 51.1209C170.201 51.362 170.849 51.7509 171.399 52.2627C171.949 52.7744 172.388 53.3979 172.689 54.0932C172.99 54.7884 173.146 55.5403 173.146 56.3006L173.143 56.3044Z" fill="black"/>
<path d="M162.308 57.0025C162.444 57.0342 162.574 57.107 162.714 57.1257C163.169 57.1817 163.483 56.6629 163.577 56.2057C163.725 55.4947 163.649 54.7577 163.643 54.0318C163.633 53.9124 163.652 53.7924 163.7 53.6828C163.804 53.4813 164.054 53.4253 164.247 53.332C164.689 53.1304 164.977 52.7013 165.342 52.3672C165.707 52.0332 166.237 51.7869 166.65 52.0407C166.772 52.1153 166.871 52.2273 166.991 52.3056C167.123 52.3757 167.267 52.4176 167.415 52.4288C167.563 52.44 167.712 52.4204 167.852 52.371C168.135 52.2851 168.399 52.134 168.671 52.0201C169.281 51.7664 170.087 51.757 170.496 52.287C170.698 52.5538 170.791 52.9364 171.094 53.067C171.205 53.1155 171.331 53.1211 171.446 53.164C171.831 53.3115 171.93 53.8209 171.913 54.2408C171.897 54.6606 171.842 55.1327 172.096 55.4574C172.307 55.7224 172.709 55.8605 172.754 56.2039C172.783 56.424 172.641 56.6293 172.617 56.8495C172.612 56.9313 172.622 57.0135 172.648 57.0911C172.674 57.1688 172.715 57.2404 172.768 57.3019C172.821 57.3633 172.886 57.4134 172.958 57.4491C173.03 57.4849 173.108 57.5056 173.188 57.5101C173.663 57.5101 173.957 56.9671 174.4 56.7935C174.582 56.7208 174.803 56.7096 174.947 56.5621C175.001 56.4913 175.039 56.4093 175.058 56.322C175.078 56.2347 175.078 56.1441 175.06 56.0564C174.971 55.3417 174.411 54.7203 174.471 54.0038C174.528 53.3171 175.15 52.718 175.018 52.0425C174.951 51.7935 174.826 51.5648 174.653 51.3763C174.458 51.1052 174.203 50.8848 173.909 50.7326C173.656 50.6206 173.362 50.5945 173.13 50.4583C172.44 50.072 172.442 49.0643 172.035 48.3776C171.861 48.0938 171.613 47.8646 171.32 47.7152C171.026 47.5658 170.698 47.5018 170.372 47.5304C169.859 47.5827 169.394 47.8607 168.886 47.954C168.191 48.0809 167.487 47.8476 166.829 47.5808C166.17 47.3139 165.504 47.021 164.798 47.021C164.092 47.021 163.327 47.3942 163.112 48.0772C162.999 48.4504 163.056 48.8497 162.968 49.2248C162.815 49.891 162.238 50.3649 161.658 50.6952C161.259 50.9229 160.779 51.1841 160.731 51.6488C160.7 51.9436 160.859 52.2086 160.959 52.4941C161.13 52.9771 161.126 53.5066 160.948 53.987C160.815 54.3397 160.593 54.6494 160.458 55.0002C160.362 55.2383 160.317 55.4945 160.325 55.7519C160.333 56.0092 160.394 56.2619 160.505 56.4931C160.59 56.6617 160.708 56.8107 160.851 56.9311C160.995 57.0514 161.161 57.1405 161.339 57.1929C161.698 57.2806 161.925 56.9167 162.308 57.0025Z" fill="#3F3D56"/>
<g opacity="0.1">
<path opacity="0.1" d="M163.577 55.799C163.483 56.2562 163.167 56.775 162.713 56.719C162.572 56.7003 162.444 56.6275 162.306 56.5958C161.924 56.51 161.698 56.8757 161.339 56.7824C161.16 56.7301 160.994 56.641 160.85 56.5207C160.707 56.4004 160.589 56.2513 160.503 56.0826C160.408 55.8927 160.35 55.6853 160.334 55.4724C160.297 55.8029 160.356 56.1369 160.503 56.4335C160.589 56.6021 160.707 56.7512 160.85 56.8715C160.994 56.9918 161.16 57.0809 161.339 57.1332C161.704 57.2191 161.924 56.8533 162.306 56.9466C162.439 56.9942 162.575 57.0347 162.713 57.0679C163.167 57.1258 163.483 56.607 163.577 56.1498C163.652 55.7459 163.682 55.3346 163.665 54.9238C163.663 55.2177 163.634 55.5108 163.577 55.799Z" fill="black"/>
<path opacity="0.1" d="M161.078 52.987C161.101 52.6812 161.06 52.3738 160.958 52.0857C160.875 51.894 160.805 51.697 160.748 51.496C160.74 51.5273 160.734 51.5591 160.729 51.5911C160.698 51.8841 160.859 52.151 160.958 52.4365C161.021 52.6137 161.062 52.7988 161.078 52.987Z" fill="black"/>
<path opacity="0.1" d="M175.017 52.0053C174.931 52.5353 174.511 53.0335 174.469 53.5914C174.459 53.687 174.459 53.7833 174.469 53.8788C174.56 53.2276 175.124 52.651 175.017 52.0053Z" fill="black"/>
<path opacity="0.1" d="M175.048 55.943C175.032 56.021 174.996 56.0932 174.944 56.152C174.809 56.2994 174.579 56.3106 174.396 56.3834C173.953 56.5569 173.666 57.1055 173.185 57.0999C173.061 57.0928 172.943 57.0476 172.845 56.9703C172.748 56.893 172.675 56.7873 172.637 56.667C172.626 56.7074 172.618 56.7486 172.612 56.7902C172.607 56.8718 172.617 56.9538 172.643 57.0312C172.669 57.1086 172.71 57.1801 172.763 57.2413C172.816 57.3026 172.881 57.3524 172.953 57.3881C173.025 57.4237 173.103 57.4444 173.183 57.4489C173.659 57.4489 173.951 56.9058 174.394 56.7342C174.577 56.6614 174.799 56.6502 174.942 56.5028C174.995 56.4319 175.033 56.35 175.053 56.2627C175.072 56.1753 175.073 56.0847 175.055 55.9971C175.053 55.9747 175.049 55.9598 175.048 55.943Z" fill="black"/>
<path opacity="0.1" d="M172.76 55.7877C172.714 55.448 172.313 55.31 172.101 55.0412C171.971 54.8647 171.901 54.65 171.9 54.4292C171.886 54.7763 171.891 55.1308 172.101 55.3921C172.311 55.6533 172.63 55.7653 172.732 56.034C172.758 55.9547 172.767 55.8708 172.76 55.7877Z" fill="black"/>
<path opacity="0.1" d="M171.911 53.834C171.926 53.4141 171.827 52.901 171.442 52.7573C171.329 52.7144 171.203 52.7088 171.092 52.6621C170.789 52.5315 170.694 52.1471 170.494 51.8821C170.087 51.3503 169.282 51.3596 168.669 51.6134C168.396 51.7272 168.135 51.8784 167.85 51.9642C167.71 52.0147 167.562 52.0349 167.414 52.0237C167.266 52.0124 167.122 51.97 166.991 51.8989C166.87 51.8205 166.772 51.7123 166.65 51.6339C166.236 51.3801 165.696 51.6339 165.34 51.9605C164.984 52.287 164.696 52.7237 164.245 52.9252C164.041 53.0185 163.793 53.0745 163.687 53.276C163.64 53.3859 163.621 53.5057 163.63 53.625C163.63 53.6978 163.63 53.7705 163.63 53.8433C163.633 53.7681 163.651 53.6944 163.683 53.6269C163.789 53.4253 164.037 53.3694 164.241 53.276C164.683 53.0745 164.971 52.6453 165.336 52.3113C165.701 51.9773 166.232 51.731 166.646 51.9847C166.768 52.0594 166.867 52.1713 166.987 52.2479C167.118 52.3193 167.262 52.3621 167.41 52.3733C167.558 52.3846 167.707 52.3641 167.847 52.3132C168.125 52.2116 168.399 52.0952 168.666 51.9642C169.277 51.7104 170.081 51.6992 170.49 52.2311C170.691 52.496 170.786 52.8804 171.089 53.0111C171.2 53.0596 171.326 53.0652 171.439 53.1081C171.751 53.2275 171.875 53.5858 171.902 53.9404L171.911 53.834Z" fill="black"/>
</g>
<g opacity="0.1">
<path opacity="0.1" d="M162.926 55.7877C162.937 55.478 163.045 55.1801 163.235 54.9388C163.425 54.6976 163.687 54.5259 163.981 54.4497C164.794 54.2463 165.648 54.2858 166.44 54.5636C168.171 55.1495 166.221 57.2582 166.221 57.2582C166.221 57.2582 164.924 58.5644 163.714 57.6519C163.357 57.3757 163.107 56.9791 163.008 56.5323C162.949 56.2888 162.921 56.0385 162.926 55.7877Z" fill="black"/>
<path opacity="0.1" d="M172.444 55.7875C172.434 55.4775 172.325 55.1794 172.134 54.9381C171.944 54.6968 171.682 54.5253 171.388 54.4495C170.575 54.2465 169.722 54.286 168.93 54.5633C167.199 55.1493 169.149 57.2579 169.149 57.2579C169.149 57.2579 170.445 58.5641 171.656 57.6516C172.013 57.3755 172.263 56.9788 172.362 56.532C172.421 56.2886 172.449 56.0383 172.444 55.7875Z" fill="black"/>
<path opacity="0.1" d="M166.113 54.3894V54.474H169.275V54.3732L166.113 54.3894Z" fill="black"/>
<path opacity="0.1" d="M167.122 55.3271H167.223V55.0304C167.223 55.0304 167.544 54.7747 168.077 55.0304V55.2954H168.259V55.1218H168.17C168.17 55.1218 168.206 54.7617 167.611 54.8195C167.611 54.8195 167.133 54.7729 167.144 55.0826H167.035L167.122 55.3271Z" fill="black"/>
</g>
<path d="M162.926 55.6665C162.937 55.3568 163.045 55.0589 163.235 54.8176C163.425 54.5763 163.687 54.4047 163.981 54.3285C164.794 54.1265 165.647 54.166 166.44 54.4424C168.171 55.0302 166.221 57.137 166.221 57.137C166.221 57.137 164.924 58.4432 163.714 57.5307C163.356 57.2552 163.106 56.8582 163.008 56.4111C162.949 56.1677 162.921 55.9173 162.926 55.6665Z" fill="#673AB7"/>
<path d="M172.444 55.6666C172.434 55.3566 172.325 55.0585 172.134 54.8172C171.944 54.5759 171.682 54.4044 171.388 54.3286C170.575 54.1265 169.722 54.166 168.93 54.4424C167.199 55.0302 169.149 57.137 169.149 57.137C169.149 57.137 170.445 58.4432 171.656 57.5307C172.014 57.2552 172.264 56.8583 172.362 56.4111C172.421 56.1677 172.449 55.9174 172.444 55.6666Z" fill="#673AB7"/>
<path d="M166.113 54.2737V54.3601H169.275V54.2575L166.113 54.2737Z" fill="#673AB7"/>
<path d="M167.122 55.2092H167.223V54.9125C167.223 54.9125 167.544 54.6587 168.076 54.9125V55.1793H168.259V55.0039H168.17C168.17 55.0039 168.206 54.6457 167.611 54.7016C167.611 54.7016 167.133 54.6569 167.144 54.9648H167.035L167.122 55.2092Z" fill="#673AB7"/>
<path d="M22.4659 85.3144H21.4296V109.181H22.4659V85.3144Z" fill="#535461"/>
<path d="M28.9791 109.108L28.9134 110.183L28.8222 111.7L28.7839 112.333L28.6926 113.852L28.6525 114.484L28.5613 116.002L27.5159 133.257C27.4713 134 27.1515 134.697 26.6216 135.207C26.0917 135.716 25.3917 136 24.6643 136H19.2312C18.504 136 17.8042 135.716 17.2746 135.206C16.7451 134.697 16.4256 133.999 16.3815 133.257L15.3306 116.002L15.2394 114.484L15.2011 113.852L15.1117 112.329L15.0733 111.697L14.9821 110.179L14.9165 109.105C14.904 108.898 14.933 108.692 15.0016 108.497C15.0703 108.303 15.1771 108.125 15.3156 107.974C15.454 107.824 15.6212 107.704 15.8067 107.622C15.9922 107.54 16.1922 107.498 16.3942 107.498H27.5031C27.7054 107.498 27.9056 107.54 28.0913 107.622C28.277 107.704 28.4442 107.825 28.5826 107.976C28.721 108.127 28.8275 108.305 28.8957 108.5C28.9639 108.695 28.9923 108.902 28.9791 109.108Z" fill="#3F3D56"/>
<path d="M28.9134 110.183L28.8222 111.7H15.0715L14.9803 110.183H28.9134Z" fill="#9D9CB5"/>
<path d="M28.7839 112.333L28.6927 113.852H15.2029L15.1099 112.333H28.7839Z" fill="#9D9CB5"/>
<path d="M28.6525 114.485L28.5613 116.002H15.3343L15.2412 114.485H28.6525Z" fill="#9D9CB5"/>
<path d="M13.3985 94.2601C19.4337 98.7256 21.9478 105.712 21.9478 105.712C21.9478 105.712 14.6738 105.456 8.62949 100.991C2.58519 96.5255 0.0802612 89.539 0.0802612 89.539C0.0802612 89.539 7.36152 89.7946 13.3985 94.2601Z" fill="#673AB7"/>
<path d="M0.0894165 89.539C0.0894165 89.539 7.63887 93.8309 10.0599 97.3764C12.4809 100.922 21.9478 105.714 21.9478 105.714" stroke="#535461" stroke-width="2" stroke-miterlimit="10"/>
<path d="M17.2937 85.2713C20.5776 87.6971 21.9478 91.5039 21.9478 91.5039C21.9478 91.5039 17.9888 91.3658 14.703 88.9343C11.4172 86.5029 10.0507 82.7017 10.0507 82.7017C10.0507 82.7017 14.0097 82.8305 17.2937 85.2713Z" fill="#673AB7"/>
<path d="M10.0507 82.6926C10.0507 82.6926 14.1593 85.0251 15.4765 86.9565C16.7938 88.8878 21.9478 91.4947 21.9478 91.4947" stroke="#535461" stroke-width="2" stroke-miterlimit="10"/>
<path d="M26.7223 91.3025C22.9475 95.544 22.1503 101.086 22.1503 101.086C22.1503 101.086 27.4703 99.752 31.2432 95.5104C35.0161 91.2689 35.8152 85.7248 35.8152 85.7248C35.8152 85.7248 30.4952 87.0591 26.7223 91.3025Z" fill="#673AB7"/>
<path d="M35.8152 85.7248C35.8152 85.7248 30.9002 90.0727 29.6505 93.0696C28.4007 96.0665 22.1503 101.094 22.1503 101.094" stroke="#535461" stroke-width="2" stroke-miterlimit="10"/>
</g>
<defs>
<linearGradient id="paint0_linear" x1="107.878" y1="120.562" x2="107.878" y2="20.1068" gradientUnits="userSpaceOnUse">
<stop stop-color="#808080" stop-opacity="0.25"/>
<stop offset="0.54" stop-color="#808080" stop-opacity="0.12"/>
<stop offset="1" stop-color="#808080" stop-opacity="0.1"/>
</linearGradient>
<linearGradient id="paint1_linear" x1="33575.4" y1="90211.4" x2="33575.4" y2="30565.6" gradientUnits="userSpaceOnUse">
<stop stop-color="#808080" stop-opacity="0.25"/>
<stop offset="0.54" stop-color="#808080" stop-opacity="0.12"/>
<stop offset="1" stop-color="#808080" stop-opacity="0.1"/>
</linearGradient>
<clipPath id="clip0">
<rect width="209" height="153" fill="white"/>
</clipPath>
</defs>
</svg>
