<svg width="109" height="108" viewBox="0 0 109 108" fill="none" xmlns="http://www.w3.org/2000/svg">
<circle cx="54.4971" cy="54" r="53" stroke="#B39DDB" stroke-width="2"/>
<path d="M54.4971 35.7577C49.2814 35.7577 45.0381 40.0648 45.0381 45.3589C45.0381 50.653 49.2814 54.9601 54.4971 54.9601C59.7127 54.9601 63.956 50.653 63.956 45.3589C63.956 40.0648 59.7127 35.7577 54.4971 35.7577ZM54.4971 51.1196C51.368 51.1196 48.8217 48.535 48.8217 45.3589C48.8217 42.1828 51.368 39.5982 54.4971 39.5982C57.6261 39.5982 60.1724 42.1828 60.1724 45.3589C60.1724 48.535 57.6261 51.1196 54.4971 51.1196ZM71.5232 72.2422V70.322C71.5232 62.9118 65.5811 56.8803 58.2806 56.8803H50.7135C43.4112 56.8803 37.4709 62.9118 37.4709 70.322V72.2422H41.2545V70.322C41.2545 65.0279 45.4978 60.7208 50.7135 60.7208H58.2806C63.4963 60.7208 67.7396 65.0279 67.7396 70.322V72.2422H71.5232Z" fill="#7E57C2"/>
</svg>
