<svg width="27" height="26" viewBox="0 0 27 26" fill="none" xmlns="http://www.w3.org/2000/svg">
<path d="M24.1026 8.4045C24.285 7.76251 24.3245 7.08816 24.2184 6.42916C24.1122 5.77015 23.863 5.14258 23.4883 4.59084C23.1136 4.03909 22.6226 3.57665 22.0501 3.23623C21.4775 2.8958 20.8373 2.68571 20.1748 2.6208C19.909 1.8559 19.4126 1.19279 18.7545 0.723252C18.0963 0.253712 17.3088 0.000967301 16.5011 0C15.5413 0.00326017 14.6171 0.364735 13.9086 1.014C13.2 0.364735 12.2758 0.00326017 11.316 0C9.62953 0 8.19195 1.0803 7.65399 2.6195C6.99033 2.68278 6.34869 2.89175 5.77459 3.23158C5.20048 3.5714 4.70798 4.03377 4.33202 4.58587C3.95606 5.13796 3.70585 5.76627 3.59914 6.42621C3.49243 7.08614 3.53184 7.76155 3.71458 8.4045C2.8824 8.84852 2.18561 9.51017 1.69812 10.3193C1.21063 11.1283 0.95063 12.0547 0.945709 13C0.945709 14.3975 1.50052 15.7118 2.46496 16.6816C2.31739 17.1742 2.24228 17.6857 2.24199 18.2C2.24199 20.7441 4.07235 22.867 6.52751 23.3142C6.88794 24.1131 7.46996 24.7911 8.2041 25.2673C8.93824 25.7435 9.79351 25.9979 10.6679 26C11.9369 26 13.0841 25.4709 13.9086 24.6233C14.3294 25.0586 14.833 25.4048 15.3897 25.6413C15.9464 25.8777 16.5447 25.9997 17.1493 26C18.0221 25.9984 18.876 25.745 19.6091 25.2702C20.3423 24.7954 20.9239 24.1191 21.2844 23.322C22.0077 23.1941 22.6957 22.9138 23.303 22.4997C23.9103 22.0855 24.4231 21.5469 24.8075 20.9193C25.1919 20.2917 25.4393 19.5895 25.5332 18.859C25.627 18.1286 25.5654 17.3864 25.3522 16.6816C25.8341 16.1981 26.2164 15.6241 26.4771 14.9924C26.7377 14.3607 26.8717 13.6837 26.8714 13C26.8665 12.0547 26.6065 11.1283 26.119 10.3193C25.6315 9.51017 24.9347 8.84852 24.1026 8.4045ZM10.6679 23.4C9.74619 23.4 8.94379 22.7448 8.76231 21.8426L8.4875 20.8H7.42714C5.99733 20.8 4.83457 19.6339 4.83457 18.2C4.83457 17.7424 4.94475 17.3134 5.16253 16.9247L5.75363 15.8639L4.73734 15.2009C4.37022 14.9635 4.06817 14.6378 3.85873 14.2534C3.64929 13.8689 3.53913 13.4381 3.53828 13C3.53828 11.7299 4.47549 10.6288 5.71863 10.4364L7.91324 10.0984L6.54048 8.3486C6.29601 8.03253 6.15423 7.64879 6.13433 7.24929C6.11442 6.84978 6.21734 6.45378 6.42917 6.11484C6.641 5.77591 6.95152 5.51039 7.31872 5.35422C7.68593 5.19804 8.0921 5.15872 8.48231 5.2416L10.0197 5.4691V3.9C10.0197 3.55522 10.1563 3.22456 10.3994 2.98076C10.6425 2.73696 10.9722 2.6 11.316 2.6C11.6598 2.6 11.9895 2.73696 12.2326 2.98076C12.4757 3.22456 12.6123 3.55522 12.6123 3.9V21.45C12.6123 22.5251 11.7399 23.4 10.6679 23.4ZM23.0798 15.1996L22.0635 15.8626L22.6546 16.9234C22.8724 17.3134 22.9826 17.7424 22.9826 18.2C22.9826 19.6339 21.8198 20.8 20.3252 20.8H19.2648L19.0548 21.8426C18.9642 22.2823 18.7252 22.6773 18.3781 22.961C18.031 23.2447 17.597 23.3997 17.1493 23.4C16.0772 23.4 15.2049 22.5251 15.2049 21.45V3.9C15.2049 3.1824 15.7856 2.6 16.5011 2.6C17.2167 2.6 17.7974 3.1824 17.7974 3.965V5.5341L19.3348 5.2416C19.725 5.15872 20.1312 5.19804 20.4984 5.35422C20.8656 5.51039 21.1761 5.77591 21.388 6.11484C21.5998 6.45378 21.7027 6.84978 21.6828 7.24929C21.6629 7.64879 21.5211 8.03253 21.2767 8.3486L19.9039 10.0997L22.0985 10.4377C22.7058 10.5363 23.2584 10.8481 23.6578 11.3174C24.0571 11.7867 24.2772 12.383 24.2788 13C24.2788 13.8879 23.8303 14.7095 23.0798 15.1996Z" fill="#616161"/>
</svg>
