<svg width="375" height="237" viewBox="0 0 375 237" fill="none" xmlns="http://www.w3.org/2000/svg">
<g clip-path="url(#clip0)">
<path d="M40.887 237L40.2211 236.85C47.6453 203.767 66.3029 173.725 92.7568 152.258C112.757 136.053 136.544 125.215 161.878 120.764C187.212 116.314 213.26 118.397 237.569 126.818C261.878 135.24 283.648 149.721 300.829 168.9C318.01 188.079 330.038 211.324 335.779 236.446L335.114 236.598C319.398 167.455 258.921 119.165 188.046 119.165C118.099 119.165 56.2095 168.722 40.887 237Z" fill="#3F3D56"/>
<path d="M136.346 42.3038C146.583 42.3038 154.881 33.9887 154.881 23.7315C154.881 13.4743 146.583 5.15918 136.346 5.15918C126.11 5.15918 117.811 13.4743 117.811 23.7315C117.811 33.9887 126.11 42.3038 136.346 42.3038Z" fill="#FF6584"/>
<path d="M56.4931 232.781C57.0712 234.922 59.0512 236.248 59.0512 236.248C59.0512 236.248 60.0939 234.103 59.5159 231.962C58.9378 229.82 56.9578 228.494 56.9578 228.494C56.9578 228.494 55.9151 230.64 56.4931 232.781Z" fill="#3F3D56"/>
<path d="M57.3425 232.321C58.9287 233.868 59.1225 236.246 59.1225 236.246C59.1225 236.246 56.7445 236.116 55.1583 234.569C53.5721 233.022 53.3783 230.643 53.3783 230.643C53.3783 230.643 55.7563 230.774 57.3425 232.321Z" fill="#6C63FF"/>
<path d="M100.514 232.781C101.092 234.922 103.072 236.248 103.072 236.248C103.072 236.248 104.115 234.103 103.537 231.962C102.959 229.82 100.979 228.494 100.979 228.494C100.979 228.494 99.9362 230.64 100.514 232.781Z" fill="#3F3D56"/>
<path d="M101.364 232.321C102.95 233.868 103.144 236.246 103.144 236.246C103.144 236.246 100.766 236.116 99.1794 234.569C97.5932 233.022 97.3994 230.643 97.3994 230.643C97.3994 230.643 99.7774 230.774 101.364 232.321Z" fill="#6C63FF"/>
<path d="M109.243 62.2283L102.273 56.641L141.304 21.7229H240.272V52.451L176.152 95.7497L109.243 62.2283Z" fill="#3F3D56"/>
<path d="M258.316 41.31V22.4204H245.176V27.0465L240.272 21.7229L208.212 56.6411L195.667 65.0216L176.215 207.425L205.55 236.82H273.727V58.0379L258.316 41.31Z" fill="#CCCCCC"/>
<path d="M208.212 56.6412H102.274V236.82H208.212V56.6412Z" fill="#F2F2F2"/>
<path d="M162.909 192.823H143.394V236.82H162.909V192.823Z" fill="#CCCCCC"/>
<path d="M122.485 205.393V198.409H114.122V205.393H121.788H122.485Z" fill="#3F3D56"/>
<path d="M121.788 210.98H114.122V217.964H122.485V210.98H121.788Z" fill="#3F3D56"/>
<path d="M136.425 198.41H128.061V205.393H136.425V198.41Z" fill="#3F3D56"/>
<path d="M136.425 210.98H128.061V217.964H136.425V210.98Z" fill="#3F3D56"/>
<path d="M179.636 205.393V198.409H171.273V205.393H178.94H179.636Z" fill="#3F3D56"/>
<path d="M178.94 210.98H171.273V217.964H179.636V210.98H178.94Z" fill="#3F3D56"/>
<path d="M193.576 198.41H185.212V205.393H193.576V198.41Z" fill="#3F3D56"/>
<path d="M193.576 210.98H185.212V217.964H193.576V210.98Z" fill="#3F3D56"/>
<path d="M238.181 65.7198V58.7364H229.818V65.7198H237.484H238.181Z" fill="#3F3D56"/>
<path d="M237.484 71.307H229.818V78.2904H238.181V71.307H237.484Z" fill="#3F3D56"/>
<path d="M252.121 58.7363H243.757V65.72H252.121V58.7363Z" fill="#3F3D56"/>
<path d="M252.121 71.3069H243.757V78.2905H252.121V71.3069Z" fill="#3F3D56"/>
<path d="M238.181 104.828V97.8447H229.818V104.828H237.484H238.181Z" fill="#3F3D56"/>
<path d="M237.484 110.415H229.818V117.399H238.181V110.415H237.484Z" fill="#3F3D56"/>
<path d="M252.121 97.8448H243.757V104.828H252.121V97.8448Z" fill="#3F3D56"/>
<path d="M252.121 110.415H243.757V117.399H252.121V110.415Z" fill="#3F3D56"/>
<path d="M238.181 143.937V136.953H229.818V143.937H237.484H238.181Z" fill="#3F3D56"/>
<path d="M237.484 149.524H229.818V156.508H238.181V149.524H237.484Z" fill="#3F3D56"/>
<path d="M252.121 136.953H243.757V143.937H252.121V136.953Z" fill="#3F3D56"/>
<path d="M252.121 149.524H243.757V156.508H252.121V149.524Z" fill="#3F3D56"/>
<path d="M238.181 183.046V176.062H229.818V183.046H237.484H238.181Z" fill="#3F3D56"/>
<path d="M237.484 188.632H229.818V195.616H238.181V188.632H237.484Z" fill="#3F3D56"/>
<path d="M252.121 176.062H243.757V183.046H252.121V176.062Z" fill="#3F3D56"/>
<path d="M252.121 188.632H243.757V195.616H252.121V188.632Z" fill="#3F3D56"/>
<path d="M194.97 65.7199H114.122V82.4807H194.97V65.7199Z" fill="#3F3D56"/>
<path d="M194.97 99.2416H114.122V116.002H194.97V99.2416Z" fill="#3F3D56"/>
<path d="M194.97 132.763H114.122V149.524H194.97V132.763Z" fill="#3F3D56"/>
<path d="M194.97 166.285H114.122V183.046H194.97V166.285Z" fill="#3F3D56"/>
<path d="M382 236.117H-6V236.801H382V236.117Z" fill="#3F3D56"/>
<path d="M60.9802 157.159H58.9755V236.506H60.9802V157.159Z" fill="#3F3D56"/>
<path d="M79.4818 167.271C79.6095 195.017 60.128 217.6 60.128 217.6C60.128 217.6 40.4397 195.198 40.3121 167.452C40.1845 139.706 59.6659 117.123 59.6659 117.123C59.6659 117.123 79.3542 139.525 79.4818 167.271Z" fill="#6C63FF"/>
<path opacity="0.1" d="M79.4818 167.271C79.6095 195.017 60.128 217.6 60.128 217.6C60.128 217.6 40.4397 195.198 40.3121 167.452C40.1845 139.706 59.6659 117.123 59.6659 117.123C59.6659 117.123 79.3542 139.525 79.4818 167.271Z" fill="black"/>
<path d="M34.9184 157.159H32.9136V236.506H34.9184V157.159Z" fill="#3F3D56"/>
<path d="M53.42 167.271C53.5476 195.017 34.0662 217.6 34.0662 217.6C34.0662 217.6 14.3778 195.198 14.2502 167.452C14.1226 139.706 33.604 117.123 33.604 117.123C33.604 117.123 53.2924 139.525 53.42 167.271Z" fill="#6C63FF"/>
<path d="M316.669 56.529C300.878 56.6019 288.024 56.8357 288.024 56.8357C288.024 56.8357 303.303 36.5564 316.612 44.0697C329.922 51.5831 345.211 56.5716 345.211 56.5716C345.211 56.5716 332.461 56.4561 316.669 56.529Z" fill="#F2F2F2"/>
<path d="M53.5665 95.5097C37.7747 95.5826 24.9207 95.8164 24.9207 95.8164C24.9207 95.8164 40.1996 75.5371 53.5092 83.0504C66.8188 90.5638 82.1082 95.5523 82.1082 95.5523C82.1082 95.5523 69.3584 95.4368 53.5665 95.5097Z" fill="#F2F2F2"/>
<path d="M110.896 14.1289C95.1045 14.2018 82.2505 14.4356 82.2505 14.4356C82.2505 14.4356 97.5295 -5.84367 110.839 1.66966C124.149 9.183 139.438 14.1715 139.438 14.1715C139.438 14.1715 126.688 14.056 110.896 14.1289Z" fill="#F2F2F2"/>
<path d="M349.209 157.159H347.204V236.506H349.209V157.159Z" fill="#3F3D56"/>
<path d="M367.71 167.271C367.838 195.017 348.356 217.6 348.356 217.6C348.356 217.6 328.668 195.198 328.541 167.452C328.413 139.706 347.894 117.123 347.894 117.123C347.894 117.123 367.583 139.525 367.71 167.271Z" fill="#673AB7"/>
<path d="M275.417 187.254H295.649V182.361H306.812V187.254H327.741V208.925H306.812V236.189H295.649V208.925H275.417L264.952 197.041L275.417 187.254Z" fill="#3F3D56"/>
</g>
<defs>
<clipPath id="clip0">
<rect width="388" height="237" fill="white" transform="translate(-6)"/>
</clipPath>
</defs>
</svg>
